Coordinates
version=1
nRows=27
nColumns=12
inDegrees=yes

Units are S.I. units (second, meters, Newtons, ...)
Angles are in degrees

endheader
time	SC_y	SC_z	SC_x	AC_y	AC_z	AC_x	GH_y	GH_z	GH_yy	EL_x	PS_y
       0.0              -32.35          24.14          53.92          59.79         -6.384         -11.37          -85.6          64.17          -7.23          27.21          28.81
   0.02907              -32.35          24.13          53.92          59.79         -6.383         -11.37         -85.57          64.17         -7.248          27.21          28.82
   0.05814              -32.35          24.13          53.92          59.78         -6.382         -11.37         -85.54          64.17         -7.267          27.21          28.82
   0.08721              -32.35          24.13          53.91          59.78         -6.381         -11.37         -85.51          64.17         -7.287          27.22          28.82
    0.1163              -32.35          24.13          53.91          59.78         -6.379         -11.36         -85.47          64.18         -7.309          27.22          28.83
    0.1454              -32.35          24.13          53.91          59.77         -6.378         -11.36         -85.44          64.18         -7.332          27.22          28.83
    0.1744              -32.34          24.12           53.9          59.77         -6.377         -11.36          -85.4          64.18         -7.357          27.22          28.84
    0.2035              -32.34          24.12           53.9          59.77         -6.375         -11.36         -85.35          64.18         -7.383          27.22          28.84
    0.2326              -32.34          24.12           53.9          59.76         -6.374         -11.36         -85.31          64.19         -7.411          27.22          28.85
    0.2616              -32.34          24.12          53.89          59.76         -6.372         -11.35         -85.26          64.19         -7.441          27.23          28.85
    0.2907              -32.33          24.11          53.89          59.75          -6.37         -11.35         -85.21          64.19         -7.473          27.23          28.86
    0.3198              -32.33          24.11          53.88          59.75         -6.368         -11.35         -85.15           64.2         -7.508          27.23          28.87
    0.3489              -32.33          24.11          53.88          59.74         -6.366         -11.34         -85.09           64.2         -7.546          27.23          28.88
    0.3779              -32.32           24.1          53.87          59.74         -6.363         -11.34         -85.02           64.2         -7.586          27.24          28.88
     0.407              -32.32           24.1          53.87          59.73         -6.361         -11.34         -84.95          64.21          -7.63          27.24          28.89
    0.4361              -32.31           24.1          53.86          59.72         -6.358         -11.33         -84.88          64.21         -7.678          27.24           28.9
    0.4651              -32.31          24.09          53.85          59.72         -6.355         -11.33         -84.79          64.22         -7.729          27.25          28.91
    0.4942               -32.3          24.09          53.85          59.71         -6.352         -11.32          -84.7          64.23         -7.786          27.25          28.92
    0.5233               -32.3          24.08          53.84           59.7         -6.348         -11.32          -84.6          64.23         -7.847          27.25          28.94
    0.5524              -32.29          24.07          53.83          59.69         -6.344         -11.31         -84.49          64.24         -7.914          27.26          28.95
    0.5814              -32.29          24.07          53.82          59.68          -6.34          -11.3         -84.38          64.25         -7.988          27.26          28.96
    0.6105              -32.28          24.06          53.81          59.67         -6.335          -11.3         -84.24          64.26          -8.07          27.27          28.98
    0.6396              -32.27          24.05           53.8          59.65          -6.33         -11.29          -84.1          64.26          -8.16          27.28           29.0
    0.6686              -32.26          24.04          53.78          59.64         -6.324         -11.28         -83.94          64.28         -8.259          27.28          29.02
    0.6977              -32.25          24.03          53.77          59.62         -6.318         -11.27         -83.76          64.29          -8.37          27.29          29.04
    0.7268              -32.24          24.02          53.75           59.6         -6.311         -11.26         -83.56           64.3         -8.494           27.3          29.06
    0.7559              -32.23          24.01          53.73          59.58         -6.303         -11.25         -83.34          64.31         -8.632          27.31          29.09
